{"title":"Justiça S01E01 720p WEB-DL [bnk]","uid":15609059,"size":717158132,"categoryP":"video","categoryS":"tv_shows","magnet":"?xt=urn:btih:77ab6907734c425da96dc54b5def9699c3d47124&amp;dn=Justi%26ccedil%3Ba+S01E01+720p+WEB-DL+%5Bbnk%5D&amp;tr=udp%3A%2F%2Ftracker.leechers-paradise.org%3A6969&amp;tr=udp%3A%2F%2Fzer0day.ch%3A1337&amp;tr=udp%3A%2F%2Fopen.demonii.com%3A1337&amp;tr=udp%3A%2F%2Ftracker.coppersurfer.tk%3A6969&amp;tr=udp%3A%2F%2Fexodus.desync.com%3A6969","seeders":29,"leechers":0,"uploader":"bnkbr","files":1,"time":1471752816,"description":"General\r\nComplete name                            : Justiça S01E01 720p WEB-DL [bnk]\r\nFormat                                   : MPEG-4\r\nFormat profile                           : Base Media\r\nCodec ID                                 : isom (isom/iso2/avc1/mp41)\r\nFile size                                : 684 MiB\r\nDuration                                 : 46 min\r\nOverall bit rate mode                    : Variable\r\nOverall bit rate                         : 2 063 kb/s\r\nWriting application                      : Lavf55.48.100\r\n\r\nVideo\r\nID                                       : 1\r\nFormat                                   : AVC\r\nFormat/Info                              : Advanced Video Codec\r\nFormat profile                           :   \r\nFormat settings, CABAC                   : Yes\r\nFormat settings, ReFrames                : 2 frames\r\nCodec ID                                 : avc1\r\nCodec ID/Info                            : Advanced Video Coding\r\nDuration                                 : 46 min\r\nBit rate                                 : 1 961 kb/s\r\nWidth                                    : 1 280 pixels\r\nHeight                                   : 720 pixels\r\nDisplay aspect ratio                     : 16:9\r\nFrame rate mode                          : Constant\r\nFrame rate                               : 29.970 (29970/1000) FPS\r\nColor space                              : YUV\r\nChroma subsampling                       : 4:2:0\r\nBit depth                                : 8 bits\r\nScan type                                : Progressive\r\nBits/(Pixel*Frame)                       : 0.071\r\nStream size                              : 649 MiB (95%)\r\nWriting library                          : x264 core 142\r\nEncoding settings                        : cabac=1 / ref=2 / deblock=1:0:0 / analyse=0x3:0x113 / me=hex / subme=4 / psy=1 / psy_rd=1.00:0.00 / mixed_ref=0 / me_range=16 / chroma_me=1 / trellis=1 / 8x8dct=1 / cqm=0 / deadzone=21,11 / fast_pskip=1 / chroma_qp_offset=0 / threads=48 / lookahead_threads=5 / sliced_threads=0 / nr=0 / decimate=1 / interlaced=0 / bluray_compat=0 / constrained_intra=0 / bframes=1 / b_pyramid=0 / b_adapt=1 / b_bias=0 / direct=1 / weightb=1 / open_gop=0 / weightp=1 / keyint=29 / keyint_min=2 / scenecut=40 / intra_refresh=0 / rc=2pass / mbtree=0 / bitrate=1961 / ratetol=1.0 / qcomp=0.60 / qpmin=0 / qpmax=69 / qpstep=4 / cplxblur=20.0 / qblur=0.5 / ip_ratio=1.40 / pb_ratio=1.30 / aq=1:1.00\r\n\r\nAudio\r\nID                                       : 2\r\nFormat                                   : AAC\r\nFormat/Info                              : Advanced Audio Codec\r\nFormat profile                           : LC\r\nCodec ID                                 : 40\r\nDuration                                 : 46 min\r\nDuration_LastFrame                       : -3 ms\r\nBit rate mode                            : Variable\r\nBit rate                                 : 98.2 kb/s\r\nMaximum bit rate                         : 128 kb/s\r\nChannel(s)                               : 2 channels\r\nChannel positions                        : Front: L R\r\nSampling rate                            : 48.0 kHz\r\nFrame rate                               : 46.875 FPS (1024 spf)\r\nCompression mode                         : Lossy\r\nStream size                              : 32.6 MiB (5%)\r\nDefault                                  : Yes\r\nAlternate group                          : 1","torrent":{"xt":"urn:btih:77ab6907734c425da96dc54b5def9699c3d47124","amp;dn":"Justi%26ccedil%3Ba+S01E01+720p+WEB-DL+%5Bbnk%5D","amp;tr":["udp%3A%2F%2Ftracker.leechers-paradise.org%3A6969","udp%3A%2F%2Fzer0day.ch%3A1337","udp%3A%2F%2Fopen.demonii.com%3A1337","udp%3A%2F%2Ftracker.coppersurfer.tk%3A6969","udp%3A%2F%2Fexodus.desync.com%3A6969"],"infoHash":"77ab6907734c425da96dc54b5def9699c3d47124","infoHashBuffer":{"type":"Buffer","data":[119,171,105,7,115,76,66,93,169,109,197,75,93,239,150,153,195,212,113,36]},"announce":[],"urlList":[]}}